# xmcd
#
# Track frame offsets:
#	150
#	13997
#	29412
#	50375
#	64217
#	83062
#	96652
#	113477
#	127112
#	144312
#	160757
#	176660
#	195270
#	207787
#	221925
#	237335
#
# Disc length: 3664 seconds
#
# Revision: 1
# Processed by: cddbd v1.5.1PL0 Copyright (c) Steve Scherf et al.
# Submitted via: dBpowerAMP V4.0
#
DISCID=e50e4e10
DTITLE=Chris Whitley - Long Way Around: An Anthology 1991-2001
DYEAR=2002
DGENRE=Blues
TTITLE0=Home Is Where You Get Across (Demo)
TTITLE1=Make the Dirt Stick
TTITLE2=Big Sky Country
TTITLE3=Weightless (Daniel Lanois Single Remix)
TTITLE4=Bordertown
TTITLE5=Bliss to Breakdown (Demo)
TTITLE6=Aerial (Edit)
TTITLE7=WPL (Wild Pagan Love)
TTITLE8=Narcotic Prayer
TTITLE9=A Pint of Lotion (Demo)
TTITLE10=Guns and Dolls
TTITLE11=Can't Get Off
TTITLE12=Cool Wooden Crosses
TTITLE13=The Wild Country
TTITLE14=Accordingly
TTITLE15=Say Goodbye
EXTD=
EXTT0=
EXTT1=
EXTT2=
EXTT3=
EXTT4=
EXTT5=
EXTT6=
EXTT7=
EXTT8=
EXTT9=
EXTT10=
EXTT11=
EXTT12=
EXTT13=
EXTT14=
EXTT15=
PLAYORDER=
